<?xml version="1.0" encoding="UTF-8" standalone="no"?>
<!DOCTYPE svg PUBLIC "-//W3C//DTD SVG 1.1//EN"
 "http://www.w3.org/Graphics/SVG/1.1/DTD/svg11.dtd">
<!-- Generated by graphviz version 2.40.1 (20161225.0304)
 -->
<!-- Title: %3 Pages: 1 -->
<svg width="1011pt" height="1072pt"
 viewBox="0.00 0.00 1010.50 1072.00" xmlns="http://www.w3.org/2000/svg" xmlns:xlink="http://www.w3.org/1999/xlink">
<g id="graph0" class="graph" transform="scale(1 1) rotate(0) translate(4 1068)">
<title>%3</title>
<polygon fill="#ffffff" stroke="transparent" points="-4,4 -4,-1068 1006.5,-1068 1006.5,4 -4,4"/>
<!-- 185 -->
<g id="node1" class="node">
<title>185</title>
<g id="a_node1"><a xlink:title="/home/osm/miniconda3/envs/detect/lib/python3.6/site&#45;packages/pandas/io/formats/csvs.py">
<polygon fill="#0d1174" stroke="#0d1174" points="570,-512 490,-512 490,-460 570,-460 570,-512"/>
<text text-anchor="middle" x="530" y="-500" font-family="Arial" font-size="10.00" fill="#ffffff">csvs:130:save</text>
<text text-anchor="middle" x="530" y="-489" font-family="Arial" font-size="10.00" fill="#ffffff">0.99%</text>
<text text-anchor="middle" x="530" y="-478" font-family="Arial" font-size="10.00" fill="#ffffff">(0.00%)</text>
<text text-anchor="middle" x="530" y="-467" font-family="Arial" font-size="10.00" fill="#ffffff">206×</text>
</a>
</g>
</g>
<!-- 1541 -->
<g id="node2" class="node">
<title>1541</title>
<g id="a_node2"><a xlink:title="/home/osm/miniconda3/envs/detect/lib/python3.6/site&#45;packages/pandas/io/formats/csvs.py">
<polygon fill="#0d1174" stroke="#0d1174" points="573,-420 487,-420 487,-368 573,-368 573,-420"/>
<text text-anchor="middle" x="530" y="-408" font-family="Arial" font-size="10.00" fill="#ffffff">csvs:272:_save</text>
<text text-anchor="middle" x="530" y="-397" font-family="Arial" font-size="10.00" fill="#ffffff">0.99%</text>
<text text-anchor="middle" x="530" y="-386" font-family="Arial" font-size="10.00" fill="#ffffff">(0.00%)</text>
<text text-anchor="middle" x="530" y="-375" font-family="Arial" font-size="10.00" fill="#ffffff">206×</text>
</a>
</g>
</g>
<!-- 185&#45;&gt;1541 -->
<g id="edge1" class="edge">
<title>185&#45;&gt;1541</title>
<path fill="none" stroke="#0d1174" stroke-width=".5" d="M530,-459.8826C530,-448.6171 530,-435.3815 530,-423.7404"/>
<polygon fill="#0d1174" stroke="#0d1174" stroke-width=".5" points="531.2251,-423.6827 530,-420.1827 528.7751,-423.6828 531.2251,-423.6827"/>
<text text-anchor="middle" x="544" y="-443" font-family="Arial" font-size="10.00" fill="#0d1174">0.99%</text>
<text text-anchor="middle" x="544" y="-432" font-family="Arial" font-size="10.00" fill="#0d1174">206×</text>
</g>
<!-- 1540 -->
<g id="node12" class="node">
<title>1540</title>
<g id="a_node12"><a xlink:title="/home/osm/miniconda3/envs/detect/lib/python3.6/site&#45;packages/pandas/io/formats/csvs.py">
<polygon fill="#0d1174" stroke="#0d1174" points="588.5,-328 471.5,-328 471.5,-276 588.5,-276 588.5,-328"/>
<text text-anchor="middle" x="530" y="-316" font-family="Arial" font-size="10.00" fill="#ffffff">csvs:290:_save_chunk</text>
<text text-anchor="middle" x="530" y="-305" font-family="Arial" font-size="10.00" fill="#ffffff">0.99%</text>
<text text-anchor="middle" x="530" y="-294" font-family="Arial" font-size="10.00" fill="#ffffff">(0.00%)</text>
<text text-anchor="middle" x="530" y="-283" font-family="Arial" font-size="10.00" fill="#ffffff">825×</text>
</a>
</g>
</g>
<!-- 1541&#45;&gt;1540 -->
<g id="edge9" class="edge">
<title>1541&#45;&gt;1540</title>
<path fill="none" stroke="#0d1174" stroke-width=".5" d="M530,-367.8826C530,-356.6171 530,-343.3815 530,-331.7404"/>
<polygon fill="#0d1174" stroke="#0d1174" stroke-width=".5" points="531.2251,-331.6827 530,-328.1827 528.7751,-331.6828 531.2251,-331.6827"/>
<text text-anchor="middle" x="544" y="-351" font-family="Arial" font-size="10.00" fill="#0d1174">0.99%</text>
<text text-anchor="middle" x="544" y="-340" font-family="Arial" font-size="10.00" fill="#0d1174">825×</text>
</g>
<!-- 1123 -->
<g id="node3" class="node">
<title>1123</title>
<g id="a_node3"><a xlink:title="/home/osm/tdiekel/Masterarbeit/04_Umsetzung/03_Quellcode/10_VideoDetect/VideoObjectDetection/detectors/TensorFlowDetector.py">
<polygon fill="#ff0000" stroke="#ff0000" points="656.5,-788 523.5,-788 523.5,-736 656.5,-736 656.5,-788"/>
<text text-anchor="middle" x="590" y="-776" font-family="Arial" font-size="10.00" fill="#ffffff">TensorFlowDetector:97:run</text>
<text text-anchor="middle" x="590" y="-765" font-family="Arial" font-size="10.00" fill="#ffffff">99.97%</text>
<text text-anchor="middle" x="590" y="-754" font-family="Arial" font-size="10.00" fill="#ffffff">(0.02%)</text>
<text text-anchor="middle" x="590" y="-743" font-family="Arial" font-size="10.00" fill="#ffffff">1×</text>
</a>
</g>
</g>
<!-- 1542 -->
<g id="node4" class="node">
<title>1542</title>
<g id="a_node4"><a xlink:title="/home/osm/tdiekel/Masterarbeit/04_Umsetzung/03_Quellcode/10_VideoDetect/VideoObjectDetection/utils/util.py">
<polygon fill="#0b9e6f" stroke="#0b9e6f" points="406.5,-696 303.5,-696 303.5,-644 406.5,-644 406.5,-696"/>
<text text-anchor="middle" x="355" y="-684" font-family="Arial" font-size="10.00" fill="#ffffff">util:67:yield_images</text>
<text text-anchor="middle" x="355" y="-673" font-family="Arial" font-size="10.00" fill="#ffffff">33.00%</text>
<text text-anchor="middle" x="355" y="-662" font-family="Arial" font-size="10.00" fill="#ffffff">(0.01%)</text>
<text text-anchor="middle" x="355" y="-651" font-family="Arial" font-size="10.00" fill="#ffffff">5039×</text>
</a>
</g>
</g>
<!-- 1123&#45;&gt;1542 -->
<g id="edge2" class="edge">
<title>1123&#45;&gt;1542</title>
<path fill="none" stroke="#0b9e6f" stroke-width="1.32" d="M523.287,-735.8826C488.1232,-722.1163 445.445,-705.4083 411.8666,-692.2627"/>
<polygon fill="#0b9e6f" stroke="#0b9e6f" stroke-width="1.32" points="412.5932,-690.4047 406.5581,-690.1845 411.1386,-694.1202 412.5932,-690.4047"/>
<text text-anchor="middle" x="518" y="-719" font-family="Arial" font-size="10.00" fill="#0b9e6f">33.00%</text>
<text text-anchor="middle" x="518" y="-708" font-family="Arial" font-size="10.00" fill="#0b9e6f">5039×</text>
</g>
<!-- 1913 -->
<g id="node5" class="node">
<title>1913</title>
<g id="a_node5"><a xlink:title="/home/osm/tdiekel/Masterarbeit/04_Umsetzung/03_Quellcode/10_VideoDetect/VideoObjectDetection/detectors/BaseDetector.py">
<polygon fill="#0d1475" stroke="#0d1475" points="674.5,-696 505.5,-696 505.5,-644 674.5,-644 674.5,-696"/>
<text text-anchor="middle" x="590" y="-684" font-family="Arial" font-size="10.00" fill="#ffffff">BaseDetector:103:save_detections</text>
<text text-anchor="middle" x="590" y="-673" font-family="Arial" font-size="10.00" fill="#ffffff">1.72%</text>
<text text-anchor="middle" x="590" y="-662" font-family="Arial" font-size="10.00" fill="#ffffff">(0.00%)</text>
<text text-anchor="middle" x="590" y="-651" font-family="Arial" font-size="10.00" fill="#ffffff">1×</text>
</a>
</g>
</g>
<!-- 1123&#45;&gt;1913 -->
<g id="edge3" class="edge">
<title>1123&#45;&gt;1913</title>
<path fill="none" stroke="#0d1475" stroke-width=".5" d="M590,-735.8826C590,-724.6171 590,-711.3815 590,-699.7404"/>
<polygon fill="#0d1475" stroke="#0d1475" stroke-width=".5" points="591.2251,-699.6827 590,-696.1827 588.7751,-699.6828 591.2251,-699.6827"/>
<text text-anchor="middle" x="604" y="-719" font-family="Arial" font-size="10.00" fill="#0d1475">1.72%</text>
<text text-anchor="middle" x="604" y="-708" font-family="Arial" font-size="10.00" fill="#0d1475">1×</text>
</g>
<!-- 3758 -->
<g id="node6" class="node">
<title>3758</title>
<g id="a_node6"><a xlink:title="/home/osm/tdiekel/Masterarbeit/04_Umsetzung/03_Quellcode/10_VideoDetect/VideoObjectDetection/detectors/TensorFlowDetector.py">
<polygon fill="#7ecb07" stroke="#7ecb07" points="840,-696 694,-696 694,-644 840,-644 840,-696"/>
<text text-anchor="middle" x="767" y="-684" font-family="Arial" font-size="10.00" fill="#ffffff">TensorFlowDetector:86:detect</text>
<text text-anchor="middle" x="767" y="-673" font-family="Arial" font-size="10.00" fill="#ffffff">65.11%</text>
<text text-anchor="middle" x="767" y="-662" font-family="Arial" font-size="10.00" fill="#ffffff">(0.00%)</text>
<text text-anchor="middle" x="767" y="-651" font-family="Arial" font-size="10.00" fill="#ffffff">5038×</text>
</a>
</g>
</g>
<!-- 1123&#45;&gt;3758 -->
<g id="edge4" class="edge">
<title>1123&#45;&gt;3758</title>
<path fill="none" stroke="#7ecb07" stroke-width="2.6" d="M640.2476,-735.8826C661.8265,-724.6665 687.1624,-711.4975 709.4874,-699.8936"/>
<polygon fill="#7ecb07" stroke="#7ecb07" stroke-width="2.6" points="711.0537,-702.2746 716.9333,-696.0234 708.4386,-697.2436 711.0537,-702.2746"/>
<text text-anchor="middle" x="716.5" y="-719" font-family="Arial" font-size="10.00" fill="#7ecb07">65.11%</text>
<text text-anchor="middle" x="716.5" y="-708" font-family="Arial" font-size="10.00" fill="#7ecb07">5038×</text>
</g>
<!-- 2139 -->
<g id="node14" class="node">
<title>2139</title>
<g id="a_node14"><a xlink:title="~">
<polygon fill="#0d1274" stroke="#0d1274" points="232,-604 0,-604 0,-552 232,-552 232,-604"/>
<text text-anchor="middle" x="116" y="-592" font-family="Arial" font-size="10.00" fill="#ffffff">~:0:&lt;method &#39;read&#39; of &#39;cv2.VideoCapture&#39; objects&gt;</text>
<text text-anchor="middle" x="116" y="-581" font-family="Arial" font-size="10.00" fill="#ffffff">1.35%</text>
<text text-anchor="middle" x="116" y="-570" font-family="Arial" font-size="10.00" fill="#ffffff">(1.35%)</text>
<text text-anchor="middle" x="116" y="-559" font-family="Arial" font-size="10.00" fill="#ffffff">25187×</text>
</a>
</g>
</g>
<!-- 1542&#45;&gt;2139 -->
<g id="edge10" class="edge">
<title>1542&#45;&gt;2139</title>
<path fill="none" stroke="#0d1274" stroke-width=".5" d="M303.4348,-650.1506C269.5358,-637.1017 224.7153,-619.8486 187.4035,-605.4859"/>
<polygon fill="#0d1274" stroke="#0d1274" stroke-width=".5" points="187.5232,-604.2194 183.8167,-604.1052 186.643,-606.5058 187.5232,-604.2194"/>
<text text-anchor="middle" x="280.5" y="-627" font-family="Arial" font-size="10.00" fill="#0d1274">1.35%</text>
<text text-anchor="middle" x="280.5" y="-616" font-family="Arial" font-size="10.00" fill="#0d1274">25187×</text>
</g>
<!-- 2142 -->
<g id="node15" class="node">
<title>2142</title>
<g id="a_node15"><a xlink:title="~">
<polygon fill="#0b9c76" stroke="#0b9c76" points="468.5,-604 241.5,-604 241.5,-552 468.5,-552 468.5,-604"/>
<text text-anchor="middle" x="355" y="-592" font-family="Arial" font-size="10.00" fill="#ffffff">~:0:&lt;method &#39;set&#39; of &#39;cv2.VideoCapture&#39; objects&gt;</text>
<text text-anchor="middle" x="355" y="-581" font-family="Arial" font-size="10.00" fill="#ffffff">31.63%</text>
<text text-anchor="middle" x="355" y="-570" font-family="Arial" font-size="10.00" fill="#ffffff">(31.63%)</text>
<text text-anchor="middle" x="355" y="-559" font-family="Arial" font-size="10.00" fill="#ffffff">25187×</text>
</a>
</g>
</g>
<!-- 1542&#45;&gt;2142 -->
<g id="edge11" class="edge">
<title>1542&#45;&gt;2142</title>
<path fill="none" stroke="#0b9c76" stroke-width="1.27" d="M355,-643.8826C355,-633.2969 355,-620.9717 355,-609.8644"/>
<polygon fill="#0b9c76" stroke="#0b9c76" stroke-width="1.27" points="356.9601,-609.7827 355,-604.1827 353.0401,-609.7828 356.9601,-609.7827"/>
<text text-anchor="middle" x="372" y="-627" font-family="Arial" font-size="10.00" fill="#0b9c76">31.63%</text>
<text text-anchor="middle" x="372" y="-616" font-family="Arial" font-size="10.00" fill="#0b9c76">25187×</text>
</g>
<!-- 1342 -->
<g id="node9" class="node">
<title>1342</title>
<g id="a_node9"><a xlink:title="/home/osm/miniconda3/envs/detect/lib/python3.6/site&#45;packages/pandas/core/generic.py">
<polygon fill="#0d1174" stroke="#0d1174" points="582,-604 478,-604 478,-552 582,-552 582,-604"/>
<text text-anchor="middle" x="530" y="-592" font-family="Arial" font-size="10.00" fill="#ffffff">generic:2882:to_csv</text>
<text text-anchor="middle" x="530" y="-581" font-family="Arial" font-size="10.00" fill="#ffffff">0.99%</text>
<text text-anchor="middle" x="530" y="-570" font-family="Arial" font-size="10.00" fill="#ffffff">(0.00%)</text>
<text text-anchor="middle" x="530" y="-559" font-family="Arial" font-size="10.00" fill="#ffffff">206×</text>
</a>
</g>
</g>
<!-- 1913&#45;&gt;1342 -->
<g id="edge12" class="edge">
<title>1913&#45;&gt;1342</title>
<path fill="none" stroke="#0d1174" stroke-width=".5" d="M572.9669,-643.8826C565.4932,-632.4228 556.6899,-618.9245 549.0041,-607.1397"/>
<polygon fill="#0d1174" stroke="#0d1174" stroke-width=".5" points="550.0138,-606.4452 547.0757,-604.1827 547.9616,-607.7836 550.0138,-606.4452"/>
<text text-anchor="middle" x="582" y="-627" font-family="Arial" font-size="10.00" fill="#0d1174">0.99%</text>
<text text-anchor="middle" x="582" y="-616" font-family="Arial" font-size="10.00" fill="#0d1174">206×</text>
</g>
<!-- 1544 -->
<g id="node16" class="node">
<title>1544</title>
<g id="a_node16"><a xlink:title="/home/osm/tdiekel/Masterarbeit/04_Umsetzung/03_Quellcode/10_VideoDetect/VideoObjectDetection/detectors/BaseDetector.py">
<polygon fill="#0d1074" stroke="#0d1074" points="776.5,-604 591.5,-604 591.5,-552 776.5,-552 776.5,-604"/>
<text text-anchor="middle" x="684" y="-592" font-family="Arial" font-size="10.00" fill="#ffffff">BaseDetector:151:interpolate_info_dict</text>
<text text-anchor="middle" x="684" y="-581" font-family="Arial" font-size="10.00" fill="#ffffff">0.73%</text>
<text text-anchor="middle" x="684" y="-570" font-family="Arial" font-size="10.00" fill="#ffffff">(0.46%)</text>
<text text-anchor="middle" x="684" y="-559" font-family="Arial" font-size="10.00" fill="#ffffff">205×</text>
</a>
</g>
</g>
<!-- 1913&#45;&gt;1544 -->
<g id="edge13" class="edge">
<title>1913&#45;&gt;1544</title>
<path fill="none" stroke="#0d1074" stroke-width=".5" d="M616.6852,-643.8826C628.4933,-632.3257 642.4197,-618.6956 654.5326,-606.8404"/>
<polygon fill="#0d1074" stroke="#0d1074" stroke-width=".5" points="655.6036,-607.5064 657.2481,-604.1827 653.8899,-605.7554 655.6036,-607.5064"/>
<text text-anchor="middle" x="663" y="-627" font-family="Arial" font-size="10.00" fill="#0d1074">0.73%</text>
<text text-anchor="middle" x="663" y="-616" font-family="Arial" font-size="10.00" fill="#0d1074">205×</text>
</g>
<!-- 7018 -->
<g id="node18" class="node">
<title>7018</title>
<g id="a_node18"><a xlink:title="/home/osm/miniconda3/envs/detect/lib/python3.6/site&#45;packages/tensorflow/python/client/session.py">
<polygon fill="#7ecb07" stroke="#7ecb07" points="872,-604 786,-604 786,-552 872,-552 872,-604"/>
<text text-anchor="middle" x="829" y="-592" font-family="Arial" font-size="10.00" fill="#ffffff">session:819:run</text>
<text text-anchor="middle" x="829" y="-581" font-family="Arial" font-size="10.00" fill="#ffffff">65.10%</text>
<text text-anchor="middle" x="829" y="-570" font-family="Arial" font-size="10.00" fill="#ffffff">(0.00%)</text>
<text text-anchor="middle" x="829" y="-559" font-family="Arial" font-size="10.00" fill="#ffffff">5038×</text>
</a>
</g>
</g>
<!-- 3758&#45;&gt;7018 -->
<g id="edge15" class="edge">
<title>3758&#45;&gt;7018</title>
<path fill="none" stroke="#7ecb07" stroke-width="2.6" d="M784.6009,-643.8826C791.4729,-633.6854 799.4328,-621.874 806.6988,-611.092"/>
<polygon fill="#7ecb07" stroke="#7ecb07" stroke-width="2.6" points="809.1793,-612.4842 811.3551,-604.1827 804.4774,-609.3154 809.1793,-612.4842"/>
<text text-anchor="middle" x="823" y="-627" font-family="Arial" font-size="10.00" fill="#7ecb07">65.10%</text>
<text text-anchor="middle" x="823" y="-616" font-family="Arial" font-size="10.00" fill="#7ecb07">5038×</text>
</g>
<!-- 1124 -->
<g id="node7" class="node">
<title>1124</title>
<g id="a_node7"><a xlink:title="~">
<polygon fill="#ff0000" stroke="#ff0000" points="673.5,-1064 506.5,-1064 506.5,-1012 673.5,-1012 673.5,-1064"/>
<text text-anchor="middle" x="590" y="-1052" font-family="Arial" font-size="10.00" fill="#ffffff">~:0:&lt;built&#45;in method builtins.exec&gt;</text>
<text text-anchor="middle" x="590" y="-1041" font-family="Arial" font-size="10.00" fill="#ffffff">100.00%</text>
<text text-anchor="middle" x="590" y="-1030" font-family="Arial" font-size="10.00" fill="#ffffff">(0.00%)</text>
<text text-anchor="middle" x="590" y="-1019" font-family="Arial" font-size="10.00" fill="#ffffff">1787×</text>
</a>
</g>
</g>
<!-- 7016 -->
<g id="node8" class="node">
<title>7016</title>
<g id="a_node8"><a xlink:title="detect.py">
<polygon fill="#ff0000" stroke="#ff0000" points="639,-972 541,-972 541,-920 639,-920 639,-972"/>
<text text-anchor="middle" x="590" y="-960" font-family="Arial" font-size="10.00" fill="#ffffff">detect:1:&lt;module&gt;</text>
<text text-anchor="middle" x="590" y="-949" font-family="Arial" font-size="10.00" fill="#ffffff">100.00%</text>
<text text-anchor="middle" x="590" y="-938" font-family="Arial" font-size="10.00" fill="#ffffff">(0.00%)</text>
<text text-anchor="middle" x="590" y="-927" font-family="Arial" font-size="10.00" fill="#ffffff">1×</text>
</a>
</g>
</g>
<!-- 1124&#45;&gt;7016 -->
<g id="edge5" class="edge">
<title>1124&#45;&gt;7016</title>
<path fill="none" stroke="#ff0000" stroke-width="4" d="M590,-1011.8826C590,-1002.6565 590,-992.1091 590,-982.1983"/>
<polygon fill="#ff0000" stroke="#ff0000" stroke-width="4" points="593.5001,-982.1827 590,-972.1827 586.5001,-982.1828 593.5001,-982.1827"/>
<text text-anchor="middle" x="609.5" y="-995" font-family="Arial" font-size="10.00" fill="#ff0000">100.00%</text>
<text text-anchor="middle" x="609.5" y="-984" font-family="Arial" font-size="10.00" fill="#ff0000">1×</text>
</g>
<!-- 7199 -->
<g id="node21" class="node">
<title>7199</title>
<g id="a_node21"><a xlink:title="detect.py">
<polygon fill="#ff0000" stroke="#ff0000" points="633,-880 547,-880 547,-828 633,-828 633,-880"/>
<text text-anchor="middle" x="590" y="-868" font-family="Arial" font-size="10.00" fill="#ffffff">detect:171:main</text>
<text text-anchor="middle" x="590" y="-857" font-family="Arial" font-size="10.00" fill="#ffffff">99.97%</text>
<text text-anchor="middle" x="590" y="-846" font-family="Arial" font-size="10.00" fill="#ffffff">(0.00%)</text>
<text text-anchor="middle" x="590" y="-835" font-family="Arial" font-size="10.00" fill="#ffffff">1×</text>
</a>
</g>
</g>
<!-- 7016&#45;&gt;7199 -->
<g id="edge17" class="edge">
<title>7016&#45;&gt;7199</title>
<path fill="none" stroke="#ff0000" stroke-width="4" d="M590,-919.8826C590,-910.6565 590,-900.1091 590,-890.1983"/>
<polygon fill="#ff0000" stroke="#ff0000" stroke-width="4" points="593.5001,-890.1827 590,-880.1827 586.5001,-890.1828 593.5001,-890.1827"/>
<text text-anchor="middle" x="607" y="-903" font-family="Arial" font-size="10.00" fill="#ff0000">99.97%</text>
<text text-anchor="middle" x="607" y="-892" font-family="Arial" font-size="10.00" fill="#ff0000">1×</text>
</g>
<!-- 1342&#45;&gt;185 -->
<g id="edge6" class="edge">
<title>1342&#45;&gt;185</title>
<path fill="none" stroke="#0d1174" stroke-width=".5" d="M530,-551.8826C530,-540.6171 530,-527.3815 530,-515.7404"/>
<polygon fill="#0d1174" stroke="#0d1174" stroke-width=".5" points="531.2251,-515.6827 530,-512.1827 528.7751,-515.6828 531.2251,-515.6827"/>
<text text-anchor="middle" x="544" y="-535" font-family="Arial" font-size="10.00" fill="#0d1174">0.99%</text>
<text text-anchor="middle" x="544" y="-524" font-family="Arial" font-size="10.00" fill="#0d1174">206×</text>
</g>
<!-- 1471 -->
<g id="node10" class="node">
<title>1471</title>
<g id="a_node10"><a xlink:title="/home/osm/miniconda3/envs/detect/lib/python3.6/site&#45;packages/tensorflow/python/client/session.py">
<polygon fill="#7ecb07" stroke="#7ecb07" points="877,-512 781,-512 781,-460 877,-460 877,-512"/>
<text text-anchor="middle" x="829" y="-500" font-family="Arial" font-size="10.00" fill="#ffffff">session:1063:_run</text>
<text text-anchor="middle" x="829" y="-489" font-family="Arial" font-size="10.00" fill="#ffffff">65.10%</text>
<text text-anchor="middle" x="829" y="-478" font-family="Arial" font-size="10.00" fill="#ffffff">(0.01%)</text>
<text text-anchor="middle" x="829" y="-467" font-family="Arial" font-size="10.00" fill="#ffffff">5038×</text>
</a>
</g>
</g>
<!-- 2052 -->
<g id="node11" class="node">
<title>2052</title>
<g id="a_node11"><a xlink:title="/home/osm/miniconda3/envs/detect/lib/python3.6/site&#45;packages/tensorflow/python/client/session.py">
<polygon fill="#7bcb07" stroke="#7bcb07" points="885,-420 773,-420 773,-368 885,-368 885,-420"/>
<text text-anchor="middle" x="829" y="-408" font-family="Arial" font-size="10.00" fill="#ffffff">session:1288:_do_run</text>
<text text-anchor="middle" x="829" y="-397" font-family="Arial" font-size="10.00" fill="#ffffff">64.76%</text>
<text text-anchor="middle" x="829" y="-386" font-family="Arial" font-size="10.00" fill="#ffffff">(0.00%)</text>
<text text-anchor="middle" x="829" y="-375" font-family="Arial" font-size="10.00" fill="#ffffff">5038×</text>
</a>
</g>
</g>
<!-- 1471&#45;&gt;2052 -->
<g id="edge7" class="edge">
<title>1471&#45;&gt;2052</title>
<path fill="none" stroke="#7bcb07" stroke-width="2.59" d="M829,-459.8826C829,-450.0738 829,-438.7715 829,-428.3286"/>
<polygon fill="#7bcb07" stroke="#7bcb07" stroke-width="2.59" points="831.8001,-428.1827 829,-420.1827 826.2001,-428.1828 831.8001,-428.1827"/>
<text text-anchor="middle" x="846" y="-443" font-family="Arial" font-size="10.00" fill="#7bcb07">64.76%</text>
<text text-anchor="middle" x="846" y="-432" font-family="Arial" font-size="10.00" fill="#7bcb07">5038×</text>
</g>
<!-- 7021 -->
<g id="node17" class="node">
<title>7021</title>
<g id="a_node17"><a xlink:title="/home/osm/miniconda3/envs/detect/lib/python3.6/site&#45;packages/tensorflow/python/client/session.py">
<polygon fill="#7bcb07" stroke="#7bcb07" points="885.5,-328 772.5,-328 772.5,-276 885.5,-276 885.5,-328"/>
<text text-anchor="middle" x="829" y="-316" font-family="Arial" font-size="10.00" fill="#ffffff">session:1332:_do_call</text>
<text text-anchor="middle" x="829" y="-305" font-family="Arial" font-size="10.00" fill="#ffffff">64.76%</text>
<text text-anchor="middle" x="829" y="-294" font-family="Arial" font-size="10.00" fill="#ffffff">(0.00%)</text>
<text text-anchor="middle" x="829" y="-283" font-family="Arial" font-size="10.00" fill="#ffffff">5038×</text>
</a>
</g>
</g>
<!-- 2052&#45;&gt;7021 -->
<g id="edge14" class="edge">
<title>2052&#45;&gt;7021</title>
<path fill="none" stroke="#7bcb07" stroke-width="2.59" d="M829,-367.8826C829,-358.0738 829,-346.7715 829,-336.3286"/>
<polygon fill="#7bcb07" stroke="#7bcb07" stroke-width="2.59" points="831.8001,-336.1827 829,-328.1827 826.2001,-336.1828 831.8001,-336.1827"/>
<text text-anchor="middle" x="846" y="-351" font-family="Arial" font-size="10.00" fill="#7bcb07">64.76%</text>
<text text-anchor="middle" x="846" y="-340" font-family="Arial" font-size="10.00" fill="#7bcb07">5038×</text>
</g>
<!-- 2393 -->
<g id="node13" class="node">
<title>2393</title>
<g id="a_node13"><a xlink:title="~">
<polygon fill="#0d0f73" stroke="#0d0f73" points="631,-236 429,-236 429,-184 631,-184 631,-236"/>
<text text-anchor="middle" x="530" y="-224" font-family="Arial" font-size="10.00" fill="#ffffff">~:0:&lt;pandas._libs.writers.write_csv_rows&gt;</text>
<text text-anchor="middle" x="530" y="-213" font-family="Arial" font-size="10.00" fill="#ffffff">0.53%</text>
<text text-anchor="middle" x="530" y="-202" font-family="Arial" font-size="10.00" fill="#ffffff">(0.53%)</text>
<text text-anchor="middle" x="530" y="-191" font-family="Arial" font-size="10.00" fill="#ffffff">825×</text>
</a>
</g>
</g>
<!-- 1540&#45;&gt;2393 -->
<g id="edge8" class="edge">
<title>1540&#45;&gt;2393</title>
<path fill="none" stroke="#0d0f73" stroke-width=".5" d="M530,-275.8826C530,-264.6171 530,-251.3815 530,-239.7404"/>
<polygon fill="#0d0f73" stroke="#0d0f73" stroke-width=".5" points="531.2251,-239.6827 530,-236.1827 528.7751,-239.6828 531.2251,-239.6827"/>
<text text-anchor="middle" x="544" y="-259" font-family="Arial" font-size="10.00" fill="#0d0f73">0.53%</text>
<text text-anchor="middle" x="544" y="-248" font-family="Arial" font-size="10.00" fill="#0d0f73">825×</text>
</g>
<!-- 7020 -->
<g id="node22" class="node">
<title>7020</title>
<g id="a_node22"><a xlink:title="/home/osm/miniconda3/envs/detect/lib/python3.6/site&#45;packages/tensorflow/python/client/session.py">
<polygon fill="#7bcb07" stroke="#7bcb07" points="884,-236 774,-236 774,-184 884,-184 884,-236"/>
<text text-anchor="middle" x="829" y="-224" font-family="Arial" font-size="10.00" fill="#ffffff">session:1315:_run_fn</text>
<text text-anchor="middle" x="829" y="-213" font-family="Arial" font-size="10.00" fill="#ffffff">64.76%</text>
<text text-anchor="middle" x="829" y="-202" font-family="Arial" font-size="10.00" fill="#ffffff">(0.00%)</text>
<text text-anchor="middle" x="829" y="-191" font-family="Arial" font-size="10.00" fill="#ffffff">5038×</text>
</a>
</g>
</g>
<!-- 7021&#45;&gt;7020 -->
<g id="edge20" class="edge">
<title>7021&#45;&gt;7020</title>
<path fill="none" stroke="#7bcb07" stroke-width="2.59" d="M829,-275.8826C829,-266.0738 829,-254.7715 829,-244.3286"/>
<polygon fill="#7bcb07" stroke="#7bcb07" stroke-width="2.59" points="831.8001,-244.1827 829,-236.1827 826.2001,-244.1828 831.8001,-244.1827"/>
<text text-anchor="middle" x="846" y="-259" font-family="Arial" font-size="10.00" fill="#7bcb07">64.76%</text>
<text text-anchor="middle" x="846" y="-248" font-family="Arial" font-size="10.00" fill="#7bcb07">5038×</text>
</g>
<!-- 7018&#45;&gt;1471 -->
<g id="edge18" class="edge">
<title>7018&#45;&gt;1471</title>
<path fill="none" stroke="#7ecb07" stroke-width="2.6" d="M829,-551.8826C829,-542.0738 829,-530.7715 829,-520.3286"/>
<polygon fill="#7ecb07" stroke="#7ecb07" stroke-width="2.6" points="831.8351,-520.2827 829,-512.1827 826.1651,-520.2828 831.8351,-520.2827"/>
<text text-anchor="middle" x="846" y="-535" font-family="Arial" font-size="10.00" fill="#7ecb07">65.10%</text>
<text text-anchor="middle" x="846" y="-524" font-family="Arial" font-size="10.00" fill="#7ecb07">5038×</text>
</g>
<!-- 4625 -->
<g id="node19" class="node">
<title>4625</title>
<g id="a_node19"><a xlink:title="~">
<polygon fill="#7bcb07" stroke="#7bcb07" points="1002.5,-52 655.5,-52 655.5,0 1002.5,0 1002.5,-52"/>
<text text-anchor="middle" x="829" y="-40" font-family="Arial" font-size="10.00" fill="#ffffff">~:0:&lt;built&#45;in method _pywrap_tensorflow_internal.TF_SessionRun_wrapper&gt;</text>
<text text-anchor="middle" x="829" y="-29" font-family="Arial" font-size="10.00" fill="#ffffff">64.75%</text>
<text text-anchor="middle" x="829" y="-18" font-family="Arial" font-size="10.00" fill="#ffffff">(64.75%)</text>
<text text-anchor="middle" x="829" y="-7" font-family="Arial" font-size="10.00" fill="#ffffff">5038×</text>
</a>
</g>
</g>
<!-- 4626 -->
<g id="node20" class="node">
<title>4626</title>
<g id="a_node20"><a xlink:title="/home/osm/miniconda3/envs/detect/lib/python3.6/site&#45;packages/tensorflow/python/client/session.py">
<polygon fill="#7bcb07" stroke="#7bcb07" points="909.5,-144 748.5,-144 748.5,-92 909.5,-92 909.5,-144"/>
<text text-anchor="middle" x="829" y="-132" font-family="Arial" font-size="10.00" fill="#ffffff">session:1403:_call_tf_sessionrun</text>
<text text-anchor="middle" x="829" y="-121" font-family="Arial" font-size="10.00" fill="#ffffff">64.75%</text>
<text text-anchor="middle" x="829" y="-110" font-family="Arial" font-size="10.00" fill="#ffffff">(0.00%)</text>
<text text-anchor="middle" x="829" y="-99" font-family="Arial" font-size="10.00" fill="#ffffff">5038×</text>
</a>
</g>
</g>
<!-- 4626&#45;&gt;4625 -->
<g id="edge16" class="edge">
<title>4626&#45;&gt;4625</title>
<path fill="none" stroke="#7bcb07" stroke-width="2.59" d="M829,-91.8826C829,-82.0738 829,-70.7715 829,-60.3286"/>
<polygon fill="#7bcb07" stroke="#7bcb07" stroke-width="2.59" points="831.8001,-60.1827 829,-52.1827 826.2001,-60.1828 831.8001,-60.1827"/>
<text text-anchor="middle" x="846" y="-75" font-family="Arial" font-size="10.00" fill="#7bcb07">64.75%</text>
<text text-anchor="middle" x="846" y="-64" font-family="Arial" font-size="10.00" fill="#7bcb07">5038×</text>
</g>
<!-- 7199&#45;&gt;1123 -->
<g id="edge21" class="edge">
<title>7199&#45;&gt;1123</title>
<path fill="none" stroke="#ff0000" stroke-width="4" d="M590,-827.8826C590,-818.6565 590,-808.1091 590,-798.1983"/>
<polygon fill="#ff0000" stroke="#ff0000" stroke-width="4" points="593.5001,-798.1827 590,-788.1827 586.5001,-798.1828 593.5001,-798.1827"/>
<text text-anchor="middle" x="607" y="-811" font-family="Arial" font-size="10.00" fill="#ff0000">99.97%</text>
<text text-anchor="middle" x="607" y="-800" font-family="Arial" font-size="10.00" fill="#ff0000">1×</text>
</g>
<!-- 7020&#45;&gt;4626 -->
<g id="edge19" class="edge">
<title>7020&#45;&gt;4626</title>
<path fill="none" stroke="#7bcb07" stroke-width="2.59" d="M829,-183.8826C829,-174.0738 829,-162.7715 829,-152.3286"/>
<polygon fill="#7bcb07" stroke="#7bcb07" stroke-width="2.59" points="831.8001,-152.1827 829,-144.1827 826.2001,-152.1828 831.8001,-152.1827"/>
<text text-anchor="middle" x="846" y="-167" font-family="Arial" font-size="10.00" fill="#7bcb07">64.75%</text>
<text text-anchor="middle" x="846" y="-156" font-family="Arial" font-size="10.00" fill="#7bcb07">5038×</text>
</g>
</g>
</svg>
